<svg width="20" height="14" viewBox="0 0 20 14" fill="none" xmlns="http://www.w3.org/2000/svg">
<path fill-rule="evenodd" clip-rule="evenodd" d="M9.4585 3.06262C9.4585 4.51237 8.28324 5.68762 6.8335 5.68762C5.38375 5.68762 4.2085 4.51237 4.2085 3.06262C4.2085 1.61287 5.38375 0.437622 6.8335 0.437622C8.28324 0.437622 9.4585 1.61287 9.4585 3.06262ZM0.708496 11.3751C0.708496 10.0626 2.4585 7.43762 6.8335 7.43762C11.2085 7.43762 12.9585 10.0626 12.9585 11.3751C12.9585 12.6876 12.0835 13.5626 10.771 13.5626H2.896C1.5835 13.5626 0.708496 12.6876 0.708496 11.3751ZM13.8335 5.68762C15.2832 5.68762 16.4585 4.51237 16.4585 3.06262C16.4585 1.61287 15.2832 0.437622 13.8335 0.437622C12.3837 0.437622 11.2085 1.61287 11.2085 3.06262C11.2085 4.51237 12.3837 5.68762 13.8335 5.68762ZM13.8335 7.43762C13.3919 7.43762 12.977 7.46437 12.5879 7.51382C13.9726 8.62268 14.7085 10.0712 14.7085 11.3751C14.7085 12.1558 14.5116 12.9147 14.1025 13.5626H17.771C19.0835 13.5626 19.9585 12.6876 19.9585 11.3751C19.9585 10.0626 18.2085 7.43762 13.8335 7.43762Z" fill="#333B48"/>
</svg>
