<svg width="17" height="16" viewBox="0 0 17 16" fill="none" xmlns="http://www.w3.org/2000/svg">
<path d="M7.4572 1.50418C7.84573 0.716926 8.04 0.323297 8.30374 0.19754C8.53321 0.0881247 8.7998 0.0881247 9.02927 0.19754C9.29301 0.323297 9.48727 0.716926 9.87581 1.50418L11.2014 4.19007C11.3162 4.4227 11.3736 4.53901 11.4575 4.62929C11.5318 4.70922 11.6209 4.77397 11.7199 4.81993C11.8317 4.87184 11.96 4.89049 12.2168 4.92779L15.1808 5.35849C16.0496 5.48474 16.484 5.54786 16.6851 5.75983C16.8601 5.94425 16.9425 6.1978 16.9093 6.44984C16.8712 6.73954 16.5569 7.04593 15.9282 7.65873L13.7834 9.7494C13.5976 9.93048 13.5047 10.021 13.4448 10.1287C13.3918 10.2241 13.3577 10.3288 13.3446 10.4372C13.3298 10.5595 13.3517 10.6874 13.3956 10.9431L13.9019 13.8951C14.0503 14.7604 14.1245 15.1931 13.985 15.4498C13.8637 15.6732 13.648 15.8299 13.3981 15.8763C13.1108 15.9296 12.7222 15.7253 11.9452 15.3168L9.29405 13.923C9.06443 13.8023 8.94962 13.7419 8.82867 13.7182C8.72158 13.6972 8.61143 13.6972 8.50434 13.7182C8.38339 13.7419 8.26858 13.8023 8.03896 13.923L5.38783 15.3168C4.61076 15.7253 4.22223 15.9296 3.93494 15.8763C3.68498 15.8299 3.46931 15.6732 3.34798 15.4498C3.20852 15.1931 3.28273 14.7604 3.43113 13.8951L3.93746 10.9431C3.98131 10.6874 4.00323 10.5595 3.98841 10.4372C3.97529 10.3288 3.94125 10.2241 3.88819 10.1287C3.82826 10.021 3.73538 9.93048 3.54961 9.7494L1.4048 7.65873C0.776141 7.04594 0.46181 6.73954 0.423707 6.44984C0.390556 6.1978 0.472938 5.94425 0.647907 5.75983C0.84901 5.54786 1.2834 5.48474 2.15219 5.35849L5.11625 4.92779C5.37297 4.89049 5.50133 4.87184 5.61312 4.81993C5.7121 4.77397 5.80121 4.70922 5.87551 4.62929C5.95942 4.53901 6.01682 4.4227 6.13163 4.19007L7.4572 1.50418Z" fill="#333B48"/>
</svg>
